<svg width="40" height="40" viewBox="0 0 40 40" fill="none" xmlns="http://www.w3.org/2000/svg">
<path d="M32.5021 25.2833H25.8354H23.3331L20.0021 23.6167H17.4998L15.2498 23.6167C15.472 24.0333 15.6248 24.4778 15.7081 24.95C15.7914 25.4222 15.8331 25.8944 15.8331 26.3667C15.8331 28.2 15.1803 29.7694 13.8748 31.075C12.5692 32.3806 10.9998 33.0333 9.16642 33.0333C7.33309 33.0333 5.76364 32.3806 4.45809 31.075C3.15253 29.7694 2.49976 28.2 2.49976 26.3667C2.49976 24.5333 3.15253 22.9639 4.45809 21.6583C5.76364 20.3528 7.33309 19.7 9.16642 19.7C9.63864 19.7 10.1109 19.7417 10.5831 19.825C11.0553 19.9083 11.4998 20.0611 11.9164 20.2833L16.6688 20.2833L11.9164 18.8667C11.4998 19.0889 11.0553 19.2417 10.5831 19.325C10.1109 19.4083 9.63864 19.45 9.16642 19.45C7.33309 19.45 5.76365 18.7972 4.45809 17.4917C3.15253 16.1861 2.49976 14.6167 2.49976 12.7833C2.49976 10.95 3.15253 9.38056 4.45809 8.075C5.76365 6.76945 7.33309 6.11667 9.16642 6.11667C10.9998 6.11667 12.5692 6.76945 13.8747 8.075C15.1803 9.38056 15.8331 10.95 15.8331 12.7833C15.8331 13.2556 15.7914 13.7278 15.7081 14.2C15.6247 14.6722 15.472 15.1167 15.2497 15.5333L20.9593 18.7417L26.6688 21.95H32.5021H36.6688L38.3354 23.6167L36.6688 25.2833H32.5021ZM26.6664 20.2833L23.7486 18.6167L20.8307 16.95H32.5021H36.6688L38.3354 18.6167L36.6688 20.2833H26.6664ZM9.16642 16.1167C10.0831 16.1167 10.8678 15.7903 11.5206 15.1375C12.1734 14.4847 12.4998 13.7 12.4998 12.7833C12.4998 11.8667 12.1734 11.0819 11.5206 10.4292C10.8678 9.77639 10.0831 9.45 9.16642 9.45C8.24976 9.45 7.46503 9.77639 6.81226 10.4292C6.15948 11.0819 5.83309 11.8667 5.83309 12.7833C5.83309 13.7 6.15948 14.4847 6.81226 15.1375C7.46503 15.7903 8.24976 16.1167 9.16642 16.1167ZM20.0021 21.1167C20.2243 21.1167 20.4188 21.0333 20.5854 20.8667C20.7521 20.7 20.8354 20.5056 20.8354 20.2833C20.8354 20.0611 20.7521 19.8667 20.5854 19.7C20.4188 19.5333 20.2243 19.45 20.0021 19.45C19.7799 19.45 19.5854 19.5333 19.4188 19.7C19.2521 19.8667 19.1688 20.0611 19.1688 20.2833C19.1688 20.5056 19.2521 20.7 19.4188 20.8667C19.5854 21.0333 19.7799 21.1167 20.0021 21.1167ZM9.16642 29.7C10.0831 29.7 10.8678 29.3736 11.5206 28.7208C12.1734 28.0681 12.4998 27.2833 12.4998 26.3667C12.4998 25.45 12.1734 24.6653 11.5206 24.0125C10.8678 23.3597 10.0831 23.0333 9.16642 23.0333C8.24976 23.0333 7.46503 23.3597 6.81226 24.0125C6.15948 24.6653 5.83309 25.45 5.83309 26.3667C5.83309 27.2833 6.15948 28.0681 6.81226 28.7208C7.46503 29.3736 8.24976 29.7 9.16642 29.7Z" fill="#333333"/>
</svg>
