<svg width="40" height="40" viewBox="0 0 40 40" fill="none" xmlns="http://www.w3.org/2000/svg">
<path d="M31.6666 35L19.9999 23.3333L16.0833 27.25C16.3055 27.6667 16.4583 28.1111 16.5416 28.5833C16.6249 29.0556 16.6666 29.5278 16.6666 30C16.6666 31.8333 16.0138 33.4028 14.7083 34.7083C13.4027 36.0139 11.8333 36.6667 9.99992 36.6667C8.16658 36.6667 6.59714 36.0139 5.29159 34.7083C3.98603 33.4028 3.33325 31.8333 3.33325 30C3.33325 28.1667 3.98603 26.5972 5.29159 25.2917C6.59714 23.9861 8.16658 23.3333 9.99992 23.3333C10.4721 23.3333 10.9444 23.375 11.4166 23.4583C11.8888 23.5417 12.3333 23.6944 12.7499 23.9167L16.6666 20L12.7499 16.0833C12.3333 16.3056 11.8888 16.4583 11.4166 16.5417C10.9444 16.625 10.4721 16.6667 9.99992 16.6667C8.16658 16.6667 6.59714 16.0139 5.29159 14.7083C3.98603 13.4028 3.33325 11.8333 3.33325 10C3.33325 8.16667 3.98603 6.59722 5.29159 5.29167C6.59714 3.98611 8.16658 3.33334 9.99992 3.33334C11.8333 3.33334 13.4027 3.98611 14.7083 5.29167C16.0138 6.59722 16.6666 8.16667 16.6666 10C16.6666 10.4722 16.6249 10.9444 16.5416 11.4167C16.4583 11.8889 16.3055 12.3333 16.0833 12.75L36.6666 33.3333V35H31.6666ZM24.9999 18.3333L21.6666 15L31.6666 5H36.6666V6.66667L24.9999 18.3333ZM9.99992 13.3333C10.9166 13.3333 11.7013 13.0069 12.3541 12.3542C13.0069 11.7014 13.3333 10.9167 13.3333 10C13.3333 9.08334 13.0069 8.29861 12.3541 7.64584C11.7013 6.99306 10.9166 6.66667 9.99992 6.66667C9.08325 6.66667 8.29853 6.99306 7.64575 7.64584C6.99297 8.29861 6.66659 9.08334 6.66659 10C6.66659 10.9167 6.99297 11.7014 7.64575 12.3542C8.29853 13.0069 9.08325 13.3333 9.99992 13.3333ZM19.9999 20.8333C20.2221 20.8333 20.4166 20.75 20.5833 20.5833C20.7499 20.4167 20.8333 20.2222 20.8333 20C20.8333 19.7778 20.7499 19.5833 20.5833 19.4167C20.4166 19.25 20.2221 19.1667 19.9999 19.1667C19.7777 19.1667 19.5833 19.25 19.4166 19.4167C19.2499 19.5833 19.1666 19.7778 19.1666 20C19.1666 20.2222 19.2499 20.4167 19.4166 20.5833C19.5833 20.75 19.7777 20.8333 19.9999 20.8333ZM9.99992 33.3333C10.9166 33.3333 11.7013 33.0069 12.3541 32.3542C13.0069 31.7014 13.3333 30.9167 13.3333 30C13.3333 29.0833 13.0069 28.2986 12.3541 27.6458C11.7013 26.9931 10.9166 26.6667 9.99992 26.6667C9.08325 26.6667 8.29853 26.9931 7.64575 27.6458C6.99297 28.2986 6.66659 29.0833 6.66659 30C6.66659 30.9167 6.99297 31.7014 7.64575 32.3542C8.29853 33.0069 9.08325 33.3333 9.99992 33.3333Z" fill="black"/>
</svg>
